<svg id="visual" viewBox="0 0 2000 400" width="2000" height="400" xmlns="http://www.w3.org/2000/svg" xmlns:xlink="http://www.w3.org/1999/xlink" version="1.1"><path d="M0 237L47.7 239.2C95.3 241.3 190.7 245.7 285.8 261.5C381 277.3 476 304.7 571.2 301.2C666.3 297.7 761.7 263.3 857 252.7C952.3 242 1047.7 255 1143 254.2C1238.3 253.3 1333.7 238.7 1428.8 228.5C1524 218.3 1619 212.7 1714.2 215.3C1809.3 218 1904.7 229 1952.3 234.5L2000 240L2000 0L1952.3 0C1904.7 0 1809.3 0 1714.2 0C1619 0 1524 0 1428.8 0C1333.7 0 1238.3 0 1143 0C1047.7 0 952.3 0 857 0C761.7 0 666.3 0 571.2 0C476 0 381 0 285.8 0C190.7 0 95.3 0 47.7 0L0 0Z" fill="#ee7752"></path><path d="M0 245L47.7 232.3C95.3 219.7 190.7 194.3 285.8 189.7C381 185 476 201 571.2 209C666.3 217 761.7 217 857 225.2C952.3 233.3 1047.7 249.7 1143 253C1238.3 256.3 1333.7 246.7 1428.8 239C1524 231.3 1619 225.7 1714.2 215.2C1809.3 204.7 1904.7 189.3 1952.3 181.7L2000 174L2000 0L1952.3 0C1904.7 0 1809.3 0 1714.2 0C1619 0 1524 0 1428.8 0C1333.7 0 1238.3 0 1143 0C1047.7 0 952.3 0 857 0C761.7 0 666.3 0 571.2 0C476 0 381 0 285.8 0C190.7 0 95.3 0 47.7 0L0 0Z" fill="#f0685a"></path><path d="M0 152L47.7 156.3C95.3 160.7 190.7 169.3 285.8 166C381 162.7 476 147.3 571.2 148.2C666.3 149 761.7 166 857 164.5C952.3 163 1047.7 143 1143 146.8C1238.3 150.7 1333.7 178.3 1428.8 185.5C1524 192.7 1619 179.3 1714.2 173.7C1809.3 168 1904.7 170 1952.3 171L2000 172L2000 0L1952.3 0C1904.7 0 1809.3 0 1714.2 0C1619 0 1524 0 1428.8 0C1333.7 0 1238.3 0 1143 0C1047.7 0 952.3 0 857 0C761.7 0 666.3 0 571.2 0C476 0 381 0 285.8 0C190.7 0 95.3 0 47.7 0L0 0Z" fill="#f05864"></path><path d="M0 155L47.7 148.8C95.3 142.7 190.7 130.3 285.8 125.3C381 120.3 476 122.7 571.2 125.2C666.3 127.7 761.7 130.3 857 128.3C952.3 126.3 1047.7 119.7 1143 118.2C1238.3 116.7 1333.7 120.3 1428.8 123.3C1524 126.3 1619 128.7 1714.2 133.8C1809.3 139 1904.7 147 1952.3 151L2000 155L2000 0L1952.3 0C1904.7 0 1809.3 0 1714.2 0C1619 0 1524 0 1428.8 0C1333.7 0 1238.3 0 1143 0C1047.7 0 952.3 0 857 0C761.7 0 666.3 0 571.2 0C476 0 381 0 285.8 0C190.7 0 95.3 0 47.7 0L0 0Z" fill="#ed4970"></path><path d="M0 55L47.7 59.8C95.3 64.7 190.7 74.3 285.8 75.7C381 77 476 70 571.2 66.3C666.3 62.7 761.7 62.3 857 62.3C952.3 62.3 1047.7 62.7 1143 67.5C1238.3 72.3 1333.7 81.7 1428.8 83.7C1524 85.7 1619 80.3 1714.2 80.5C1809.3 80.7 1904.7 86.3 1952.3 89.2L2000 92L2000 0L1952.3 0C1904.7 0 1809.3 0 1714.2 0C1619 0 1524 0 1428.8 0C1333.7 0 1238.3 0 1143 0C1047.7 0 952.3 0 857 0C761.7 0 666.3 0 571.2 0C476 0 381 0 285.8 0C190.7 0 95.3 0 47.7 0L0 0Z" fill="#e73c7e"></path></svg>